<mxfile host="app.diagrams.net" modified="2024-06-22T10:21:54.125Z" agent="Mozilla/5.0 (Windows NT 10.0; Win64; x64) AppleWebKit/537.36 (KHTML, like Gecko) Chrome/123.0.0.0 Safari/537.36 OPR/109.0.0.0" etag="FM7W55SOAeCh43g6QV3c" version="24.6.1" type="device">
  <diagram name="Сторінка-1" id="hulqifiNZXJl1owI4d8X">
    <mxGraphModel dx="1393" dy="797" grid="0" gridSize="10" guides="1" tooltips="1" connect="1" arrows="1" fold="1" page="1" pageScale="1" pageWidth="827" pageHeight="1169" math="0" shadow="0">
      <root>
        <mxCell id="0" />
        <mxCell id="1" parent="0" />
        <mxCell id="CaEb_067ruCqt1RR53pY-1" style="edgeStyle=orthogonalEdgeStyle;rounded=0;orthogonalLoop=1;jettySize=auto;html=1;exitX=0.5;exitY=1;exitDx=0;exitDy=0;entryX=0.5;entryY=0;entryDx=0;entryDy=0;" parent="1" source="CaEb_067ruCqt1RR53pY-2" target="CaEb_067ruCqt1RR53pY-6" edge="1">
          <mxGeometry relative="1" as="geometry" />
        </mxCell>
        <mxCell id="CaEb_067ruCqt1RR53pY-2" value="" style="ellipse;whiteSpace=wrap;html=1;aspect=fixed;" parent="1" vertex="1">
          <mxGeometry x="449" y="250" width="20" height="20" as="geometry" />
        </mxCell>
        <mxCell id="CaEb_067ruCqt1RR53pY-4" style="edgeStyle=orthogonalEdgeStyle;rounded=0;orthogonalLoop=1;jettySize=auto;html=1;exitX=0.5;exitY=1;exitDx=0;exitDy=0;entryX=0.5;entryY=0;entryDx=0;entryDy=0;" parent="1" source="CaEb_067ruCqt1RR53pY-6" target="CaEb_067ruCqt1RR53pY-13" edge="1">
          <mxGeometry relative="1" as="geometry" />
        </mxCell>
        <mxCell id="CaEb_067ruCqt1RR53pY-5" style="edgeStyle=orthogonalEdgeStyle;rounded=0;orthogonalLoop=1;jettySize=auto;html=1;exitX=1;exitY=0.5;exitDx=0;exitDy=0;" parent="1" source="CaEb_067ruCqt1RR53pY-6" target="CaEb_067ruCqt1RR53pY-7" edge="1">
          <mxGeometry relative="1" as="geometry" />
        </mxCell>
        <mxCell id="CaEb_067ruCqt1RR53pY-6" value="Оберіть дію" style="rounded=1;whiteSpace=wrap;html=1;" parent="1" vertex="1">
          <mxGeometry x="399" y="330" width="120" height="60" as="geometry" />
        </mxCell>
        <mxCell id="CaEb_067ruCqt1RR53pY-7" value="&lt;b&gt;Видалити картку&lt;/b&gt;" style="rounded=0;whiteSpace=wrap;html=1;" parent="1" vertex="1">
          <mxGeometry x="609" y="410" width="200" height="30" as="geometry" />
        </mxCell>
        <mxCell id="CaEb_067ruCqt1RR53pY-8" value="entry/Вибрати картку" style="rounded=0;whiteSpace=wrap;html=1;" parent="1" vertex="1">
          <mxGeometry x="609" y="440" width="200" height="30" as="geometry" />
        </mxCell>
        <mxCell id="CaEb_067ruCqt1RR53pY-10" style="edgeStyle=orthogonalEdgeStyle;rounded=0;orthogonalLoop=1;jettySize=auto;html=1;exitX=0.5;exitY=1;exitDx=0;exitDy=0;entryX=1;entryY=0.5;entryDx=0;entryDy=0;" parent="1" source="CaEb_067ruCqt1RR53pY-11" target="CaEb_067ruCqt1RR53pY-23" edge="1">
          <mxGeometry relative="1" as="geometry">
            <mxPoint x="539" y="830" as="targetPoint" />
          </mxGeometry>
        </mxCell>
        <mxCell id="CaEb_067ruCqt1RR53pY-11" value="&lt;span style=&quot;text-wrap: nowrap;&quot;&gt;exit/&lt;/span&gt;&lt;span style=&quot;text-wrap: nowrap;&quot;&gt;Видалення картки&lt;/span&gt;" style="rounded=0;whiteSpace=wrap;html=1;" parent="1" vertex="1">
          <mxGeometry x="609" y="470" width="200" height="30" as="geometry" />
        </mxCell>
        <mxCell id="CaEb_067ruCqt1RR53pY-12" value="" style="group" parent="1" vertex="1" connectable="0">
          <mxGeometry x="359" y="550" width="200" height="120" as="geometry" />
        </mxCell>
        <mxCell id="CaEb_067ruCqt1RR53pY-13" value="&lt;b&gt;Редагувати картки&lt;/b&gt;" style="rounded=0;whiteSpace=wrap;html=1;" parent="CaEb_067ruCqt1RR53pY-12" vertex="1">
          <mxGeometry width="200" height="30" as="geometry" />
        </mxCell>
        <mxCell id="CaEb_067ruCqt1RR53pY-14" value="entry/Вибрати картку" style="rounded=0;whiteSpace=wrap;html=1;" parent="CaEb_067ruCqt1RR53pY-12" vertex="1">
          <mxGeometry y="30" width="200" height="30" as="geometry" />
        </mxCell>
        <mxCell id="CaEb_067ruCqt1RR53pY-15" value="&lt;span style=&quot;text-wrap: nowrap;&quot;&gt;do/Редагування картки&lt;/span&gt;" style="rounded=0;whiteSpace=wrap;html=1;" parent="CaEb_067ruCqt1RR53pY-12" vertex="1">
          <mxGeometry y="60" width="200" height="30" as="geometry" />
        </mxCell>
        <mxCell id="CaEb_067ruCqt1RR53pY-16" value="&lt;span style=&quot;text-wrap: nowrap;&quot;&gt;exit/&lt;/span&gt;&lt;span style=&quot;text-wrap: nowrap;&quot;&gt;Підтвердження&amp;nbsp;&lt;/span&gt;&lt;span style=&quot;text-wrap: nowrap; background-color: initial;&quot;&gt;редагування&lt;/span&gt;&lt;div&gt;&lt;span style=&quot;text-wrap: nowrap; background-color: initial;&quot;&gt;картки&lt;/span&gt;&lt;/div&gt;" style="rounded=0;whiteSpace=wrap;html=1;" parent="CaEb_067ruCqt1RR53pY-12" vertex="1">
          <mxGeometry y="90" width="200" height="30" as="geometry" />
        </mxCell>
        <mxCell id="CaEb_067ruCqt1RR53pY-23" value="" style="ellipse;whiteSpace=wrap;html=1;aspect=fixed;" parent="1" vertex="1">
          <mxGeometry x="619" y="880" width="20" height="20" as="geometry" />
        </mxCell>
        <mxCell id="CaEb_067ruCqt1RR53pY-24" style="edgeStyle=orthogonalEdgeStyle;rounded=0;orthogonalLoop=1;jettySize=auto;html=1;exitX=0.5;exitY=1;exitDx=0;exitDy=0;entryX=1;entryY=0.5;entryDx=0;entryDy=0;" parent="1" source="CaEb_067ruCqt1RR53pY-16" target="CaEb_067ruCqt1RR53pY-30" edge="1">
          <mxGeometry relative="1" as="geometry">
            <mxPoint x="459" y="800" as="targetPoint" />
          </mxGeometry>
        </mxCell>
        <mxCell id="CaEb_067ruCqt1RR53pY-25" value="" style="curved=1;endArrow=classic;html=1;rounded=0;exitX=0.18;exitY=0.033;exitDx=0;exitDy=0;exitPerimeter=0;entryX=0.435;entryY=-0.1;entryDx=0;entryDy=0;entryPerimeter=0;" parent="1" edge="1">
          <mxGeometry width="50" height="50" relative="1" as="geometry">
            <mxPoint x="389" y="550.5" as="sourcePoint" />
            <mxPoint x="440" y="546.5" as="targetPoint" />
            <Array as="points">
              <mxPoint x="403" y="479.5" />
              <mxPoint x="433" y="479.5" />
            </Array>
          </mxGeometry>
        </mxCell>
        <mxCell id="CaEb_067ruCqt1RR53pY-27" value="OnStringTyped" style="text;html=1;align=center;verticalAlign=middle;resizable=0;points=[];autosize=1;strokeColor=none;fillColor=none;" parent="1" vertex="1">
          <mxGeometry x="343" y="450" width="100" height="30" as="geometry" />
        </mxCell>
        <mxCell id="CaEb_067ruCqt1RR53pY-29" value="" style="group" parent="1" vertex="1" connectable="0">
          <mxGeometry x="139" y="820" width="200" height="90" as="geometry" />
        </mxCell>
        <mxCell id="CaEb_067ruCqt1RR53pY-30" value="&lt;b&gt;Перевірка даних&lt;/b&gt;" style="rounded=0;whiteSpace=wrap;html=1;container=0;" parent="CaEb_067ruCqt1RR53pY-29" vertex="1">
          <mxGeometry width="200" height="30" as="geometry" />
        </mxCell>
        <mxCell id="CaEb_067ruCqt1RR53pY-31" value="entry/Перевірка даних заходу" style="rounded=0;whiteSpace=wrap;html=1;container=0;" parent="CaEb_067ruCqt1RR53pY-29" vertex="1">
          <mxGeometry y="30" width="200" height="30" as="geometry" />
        </mxCell>
        <mxCell id="CaEb_067ruCqt1RR53pY-32" value="&lt;span style=&quot;text-wrap: nowrap;&quot;&gt;exit/Зберегти&lt;/span&gt;" style="rounded=0;whiteSpace=wrap;html=1;container=0;" parent="CaEb_067ruCqt1RR53pY-29" vertex="1">
          <mxGeometry y="60" width="200" height="30" as="geometry" />
        </mxCell>
        <mxCell id="CaEb_067ruCqt1RR53pY-33" style="edgeStyle=orthogonalEdgeStyle;rounded=0;orthogonalLoop=1;jettySize=auto;html=1;entryX=0;entryY=0.5;entryDx=0;entryDy=0;exitX=0.5;exitY=0;exitDx=0;exitDy=0;" parent="1" target="CaEb_067ruCqt1RR53pY-6" edge="1" source="CaEb_067ruCqt1RR53pY-30">
          <mxGeometry relative="1" as="geometry">
            <mxPoint x="287.5" y="802" as="sourcePoint" />
            <Array as="points">
              <mxPoint x="239" y="802" />
              <mxPoint x="167" y="802" />
              <mxPoint x="167" y="359" />
              <mxPoint x="391" y="359" />
              <mxPoint x="391" y="360" />
            </Array>
            <mxPoint x="391" y="408" as="targetPoint" />
          </mxGeometry>
        </mxCell>
        <mxCell id="CaEb_067ruCqt1RR53pY-34" value="[data_is_incorrect]" style="text;html=1;align=center;verticalAlign=middle;resizable=0;points=[];autosize=1;strokeColor=none;fillColor=none;" parent="1" vertex="1">
          <mxGeometry x="204" y="582" width="120" height="30" as="geometry" />
        </mxCell>
        <mxCell id="CaEb_067ruCqt1RR53pY-35" style="edgeStyle=orthogonalEdgeStyle;rounded=0;orthogonalLoop=1;jettySize=auto;html=1;entryX=0;entryY=0.5;entryDx=0;entryDy=0;" parent="1" target="CaEb_067ruCqt1RR53pY-23" edge="1">
          <mxGeometry relative="1" as="geometry">
            <mxPoint x="339" y="890" as="sourcePoint" />
          </mxGeometry>
        </mxCell>
        <mxCell id="CaEb_067ruCqt1RR53pY-36" value="[data_is_correct]" style="text;html=1;align=center;verticalAlign=middle;resizable=0;points=[];autosize=1;strokeColor=none;fillColor=none;" parent="1" vertex="1">
          <mxGeometry x="394" y="860" width="110" height="30" as="geometry" />
        </mxCell>
      </root>
    </mxGraphModel>
  </diagram>
</mxfile>
